<svg xmlns="http://www.w3.org/2000/svg" width="680" height="452" viewBox="0 0 680 452" role="img">
<title>Capability vs energy efficiency across chain-of-thought and other approaches</title>
<desc>Standard chatbots at direct answer (~0.3 Wh), Perplexity at retrieval (~2 Wh), DeepSeek-R1 at chain-of-thought (~25 Wh). Google Gemini, OpenAI ChatGPT, Anthropic Claude and xAI Grok each span all three modes. Elo is a proxy for capability; energy per query scales with emissions.</desc>
<defs>
<style>
.axt{font-family:'Helvetica Neue',Helvetica,Arial,sans-serif;font-weight:500;font-size:12px;fill:#1F2E51;}
.tick{font-family:'Helvetica Neue',Helvetica,Arial,sans-serif;font-weight:400;font-size:11px;fill:#505050;}
.node{font-family:'Helvetica Neue',Helvetica,Arial,sans-serif;font-weight:700;font-size:15px;fill:#1F2E51;}
.nsub{font-family:'Helvetica Neue',Helvetica,Arial,sans-serif;font-weight:400;font-size:11px;fill:#767068;}
.mdl{font-family:'Helvetica Neue',Helvetica,Arial,sans-serif;font-weight:500;font-size:11.5px;}
.co{font-family:'Helvetica Neue',Helvetica,Arial,sans-serif;font-weight:700;font-size:12px;}
.spec{font-family:'Helvetica Neue',Helvetica,Arial,sans-serif;font-weight:700;font-size:12px;}
.fn{font-family:'Helvetica Neue',Helvetica,Arial,sans-serif;font-weight:400;font-size:11px;fill:#767068;}
</style>
<marker id="fm" viewBox="0 0 10 10" refX="8" refY="5" markerWidth="6" markerHeight="6" orient="auto-start-reverse"><path d="M2 1L8 5L2 9" fill="none" stroke="context-stroke" stroke-width="1.4" stroke-linecap="round" stroke-linejoin="round"/></marker>
</defs>
<rect x="0" y="0" width="680" height="452" fill="#FFFFFF"/>

<rect x="100" y="266" width="540" height="76" fill="#F7F6F3"/>

<line x1="235" y1="62" x2="235" y2="380" stroke="#EEEEEE" stroke-width="1"/>
<line x1="370" y1="62" x2="370" y2="380" stroke="#EEEEEE" stroke-width="1"/>
<line x1="505" y1="62" x2="505" y2="380" stroke="#EEEEEE" stroke-width="1"/>
<line x1="640" y1="62" x2="640" y2="380" stroke="#A0A0A0" stroke-width="1" stroke-dasharray="3 3"/>
<line x1="100" y1="322" x2="640" y2="322" stroke="#EEEEEE" stroke-width="1"/>
<line x1="100" y1="264" x2="640" y2="264" stroke="#EEEEEE" stroke-width="1"/>
<line x1="100" y1="206" x2="640" y2="206" stroke="#EEEEEE" stroke-width="1"/>
<line x1="100" y1="148" x2="640" y2="148" stroke="#EEEEEE" stroke-width="1"/>

<text class="axt" transform="translate(44,224) rotate(-90)" text-anchor="middle">Capability [Elo<tspan dy="-5" font-size="10">proxy</tspan><tspan dy="5">]</tspan></text>
<line x1="100" y1="380" x2="100" y2="60" stroke="#505050" stroke-width="1.2"/>
<line x1="100" y1="380" x2="642" y2="380" stroke="#505050" stroke-width="1.2"/>
<text class="axt" x="372" y="410" text-anchor="middle">Energy efficiency [Wh/query]</text>
<text class="tick" x="92" y="383" text-anchor="end">1000</text>
<text class="tick" x="92" y="325" text-anchor="end">1100</text>
<text class="tick" x="92" y="267" text-anchor="end">1200</text>
<text class="tick" x="92" y="209" text-anchor="end">1300</text>
<text class="tick" x="92" y="151" text-anchor="end">1400</text>
<text class="tick" x="92" y="93" text-anchor="end">1500</text>
<text class="tick" x="100" y="394" text-anchor="middle">0.01</text>
<text class="tick" x="235" y="394" text-anchor="middle">0.1</text>
<text class="tick" x="370" y="394" text-anchor="middle">1</text>
<text class="tick" x="505" y="394" text-anchor="middle">10</text>
<text class="tick" x="640" y="394" text-anchor="middle">100</text>

<text class="spec" style="fill:#767068" x="299" y="72" text-anchor="middle">standard chatbots</text>
<text class="fn" x="299" y="85" text-anchor="middle">task-focussed</text>
<line x1="299" y1="90" x2="299" y2="227" stroke="#767068" stroke-width="1" stroke-dasharray="3 3"/>

<text class="spec" style="fill:#505050" x="410" y="72" text-anchor="middle">Perplexity</text>
<text class="fn" x="410" y="85" text-anchor="middle">research-focussed</text>
<line x1="410" y1="90" x2="410" y2="181" stroke="#505050" stroke-width="1" stroke-dasharray="3 3"/>

<text class="spec" style="fill:#980605" x="559" y="72" text-anchor="middle">DeepSeek-R1</text>
<text class="fn" x="559" y="85" text-anchor="middle">reasoning-centered</text>
<line x1="559" y1="90" x2="559" y2="115" stroke="#980605" stroke-width="1" stroke-dasharray="3 3"/>

<line x1="299" y1="243" x2="299" y2="266" stroke="#767068" stroke-width="1" stroke-dasharray="3 3"/>
<line x1="410" y1="197" x2="410" y2="266" stroke="#767068" stroke-width="1" stroke-dasharray="3 3"/>
<line x1="559" y1="135" x2="559" y2="266" stroke="#767068" stroke-width="1" stroke-dasharray="3 3"/>

<circle cx="299" cy="235" r="8" fill="#505050"/>
<text class="node" x="285" y="240" text-anchor="end">Direct answer</text>
<text class="nsub" x="313" y="240">~0.3 Wh</text>

<circle cx="410" cy="189" r="8" fill="#505050"/>
<text class="node" x="396" y="194" text-anchor="end">Retrieval (RAG)</text>
<text class="nsub" x="424" y="194">~2 Wh</text>

<circle cx="559" cy="125" r="10" fill="#505050"/>
<text class="node" x="545" y="130" text-anchor="end">Chain-of-thought</text>
<text class="nsub" x="573" y="130">~25 Wh</text>

<text class="co" style="fill:#5A2C72" x="112" y="282">Google Gemini</text>
<text class="mdl" style="fill:#5A2C72" x="299" y="282" text-anchor="middle">Flash-Lite</text>
<text class="mdl" style="fill:#5A2C72" x="410" y="282" text-anchor="middle">grounded</text>
<text class="mdl" style="fill:#5A2C72" x="559" y="282" text-anchor="middle">Pro · Think</text>
<line x1="337" y1="279" x2="379" y2="279" stroke="#5A2C72" stroke-width="1.3" marker-end="url(#fm)"/>
<line x1="446" y1="279" x2="521" y2="279" stroke="#5A2C72" stroke-width="1.3" marker-end="url(#fm)"/>

<text class="co" style="fill:#002147" x="112" y="298">OpenAI ChatGPT</text>
<text class="mdl" style="fill:#002147" x="299" y="298" text-anchor="middle">Instant</text>
<text class="mdl" style="fill:#002147" x="410" y="298" text-anchor="middle">Search</text>
<text class="mdl" style="fill:#002147" x="559" y="298" text-anchor="middle">Thinking</text>
<line x1="330" y1="295" x2="385" y2="295" stroke="#002147" stroke-width="1.3" marker-end="url(#fm)"/>
<line x1="442" y1="295" x2="521" y2="295" stroke="#002147" stroke-width="1.3" marker-end="url(#fm)"/>

<text class="co" style="fill:#A57C5B" x="112" y="314">Anthropic Claude</text>
<text class="mdl" style="fill:#A57C5B" x="299" y="314" text-anchor="middle">Haiku</text>
<text class="mdl" style="fill:#A57C5B" x="410" y="314" text-anchor="middle">web search</text>
<text class="mdl" style="fill:#A57C5B" x="559" y="314" text-anchor="middle">Opus ext.</text>
<line x1="326" y1="311" x2="378" y2="311" stroke="#A57C5B" stroke-width="1.3" marker-end="url(#fm)"/>
<line x1="446" y1="311" x2="523" y2="311" stroke="#A57C5B" stroke-width="1.3" marker-end="url(#fm)"/>

<text class="co" style="fill:#0B341C" x="112" y="330">xAI Grok</text>
<text class="mdl" style="fill:#0B341C" x="299" y="330" text-anchor="middle">Grok</text>
<text class="mdl" style="fill:#0B341C" x="410" y="330" text-anchor="middle">DeepSearch</text>
<text class="mdl" style="fill:#0B341C" x="559" y="330" text-anchor="middle">Think</text>
<line x1="322" y1="327" x2="373" y2="327" stroke="#0B341C" stroke-width="1.3" marker-end="url(#fm)"/>
<line x1="448" y1="327" x2="533" y2="327" stroke="#0B341C" stroke-width="1.3" marker-end="url(#fm)"/>

<text class="fn" x="100" y="428">Elo = capability proxy · energy/query ∝ emissions · positions illustrative.</text>
<text class="fn" x="100" y="442">Perplexity (research) and DeepSeek-R1 (reasoning) are mode specialists.</text>
</svg>
